<svg xmlns="http://www.w3.org/2000/svg" viewBox="0 0 554.87 102.95"><defs><style>.cls-1{fill:#555;}.cls-2{fill:#008575;}</style></defs><title>Asset 1</title><g id="Layer_2" data-name="Layer 2"><g id="Layer_1-2" data-name="Layer 1"><path class="cls-1" d="M144.68,91.32v6a52,52,0,0,1-7,.53q-14.24,0-14.24-14.88V53.41h-8.7v-6h8.7l.34-12.34,7.1-.68v13H148.2v6H130.88V84.25c0,5.07,2.63,7.6,7.86,7.6A39.61,39.61,0,0,0,144.68,91.32Z"/><path class="cls-1" d="M191.52,96.5h-7.63V66.72a34.22,34.22,0,0,0-.67-7.87,8.23,8.23,0,0,0-3.1-4.55,9,9,0,0,0-5.66-1.91,12.25,12.25,0,0,0-9.85,4.82q-3.95,4.82-4,12.87V96.5H153V30.18h7.62V56.47q5.21-10.38,14.87-10.39a16.89,16.89,0,0,1,7.69,1.69,13,13,0,0,1,5.18,4.48,17.44,17.44,0,0,1,2.45,5.47,42.44,42.44,0,0,1,.67,9Z"/><path class="cls-1" d="M208.12,96.5H200.5V47.44h6.71V58.9c2.35-5.41,4.72-8.9,7.11-10.5A12.91,12.91,0,0,1,221.63,46c.78,0,1.78.06,3,.18v7.28h-1.56a13.4,13.4,0,0,0-10.48,4.73c-2.8,3.14-4.28,7.28-4.48,12.37Z"/><path class="cls-1" d="M239.34,33.4v8.52h-8.21V33.4Zm-.25,14V96.5h-7.62V47.44Z"/><path class="cls-1" d="M279.49,47.44v6H263V96.5h-7.63V53.41H245v-6h10.42q.19-11.8,4.54-15.21a16.82,16.82,0,0,1,10.62-3.4,40.63,40.63,0,0,1,7,.68v6.07a19.51,19.51,0,0,0-4.7-.63c-3.34,0-5.81.75-7.41,2.21S263,41.4,263,45.45v2Z"/><path class="cls-1" d="M309.16,91.32v6a51.83,51.83,0,0,1-7,.53q-14.24,0-14.23-14.88V53.41h-8.7v-6h8.7l.34-12.34,7.09-.68v13h16.58v6H295.36V84.25q0,7.6,7.87,7.6A39.48,39.48,0,0,0,309.16,91.32Z"/><path class="cls-1" d="M321.55,96.5h-5V30.18h11.08v24q3.17-5.51,6.31-7.24a15,15,0,0,1,7.4-1.74q8.06,0,13.36,6.84T360,71c0,7.31-1.73,13.57-5.22,18.74s-8.47,7.78-15,7.78-11.63-3-15.25-9.08Zm6.07-20.93c0,4.37.94,7.6,2.85,9.7a9.53,9.53,0,0,0,7.36,3.12,9.17,9.17,0,0,0,7.34-3.59q2.94-3.6,3.14-14.09c0-5.12-.88-9-2.66-11.83a8.47,8.47,0,0,0-7.53-4.15,9.39,9.39,0,0,0-7.54,3.55q-3,3.54-3,10Z"/><path class="cls-1" d="M387.72,97.53q-10.89,0-16.62-7.82a29.54,29.54,0,0,1-5.73-17.93q0-10.89,6.34-18.12t16.74-7.25a20.85,20.85,0,0,1,16.2,7c4.22,4.72,6.34,10.81,6.34,18.33q0,11.64-6.59,18.69A21.82,21.82,0,0,1,387.72,97.53Zm.39-9.14q11.17,0,11.17-16.65c0-5-.88-9-2.67-11.89a9,9,0,0,0-8.21-4.34c-3.82,0-6.66,1.48-8.51,4.48s-2.76,7-2.76,11.95c0,5.33,1,9.41,2.94,12.24A9.31,9.31,0,0,0,388.11,88.39Z"/><path class="cls-1" d="M438.72,97.53q-10.86,0-16.61-7.82a29.54,29.54,0,0,1-5.73-17.93q0-10.89,6.33-18.12t16.75-7.25a20.88,20.88,0,0,1,16.19,7c4.24,4.72,6.35,10.81,6.35,18.33q0,11.64-6.57,18.69A21.91,21.91,0,0,1,438.72,97.53Zm.39-9.14q11.17,0,11.18-16.65c0-5-.89-9-2.67-11.89a9,9,0,0,0-8.21-4.34c-3.83,0-6.66,1.48-8.51,4.48s-2.77,7-2.77,11.95q0,8,2.95,12.24A9.29,9.29,0,0,0,439.11,88.39Z"/><path class="cls-1" d="M513,96.5H501.34L488.8,71.34,477.92,83.53v13H467.33V30.18h10.59V71.34c.94-1.22,1.69-2.16,2.23-2.76L499.6,47.44h11.89L496.72,63.67Z"/><path class="cls-1" d="M512.71,85.25l10.38-2c1.58,4,5.09,6,10.5,6,6.86,0,10.31-2,10.31-6.07a3.91,3.91,0,0,0-1.61-3.21,8.68,8.68,0,0,0-3.79-1.69l-8.94-1.69c-9.91-1.93-14.88-6.76-14.88-14.54A14.81,14.81,0,0,1,519.41,51q4.7-4.55,14-4.55,15.52,0,19,11.41l-9.86,2q-1.58-5.53-8.84-5.54-8.85,0-8.84,5.54c0,2.55,2.38,4.33,7.14,5.29l10.54,2.19q12.28,2.55,12.29,14.08c0,5.41-2.09,9.46-6.33,12.13a27.35,27.35,0,0,1-15,4,28.33,28.33,0,0,1-13.31-3A14.49,14.49,0,0,1,512.71,85.25Z"/><path class="cls-2" d="M31,40.47,36,12.37a1.76,1.76,0,0,0-1.42-2L16.39,7.15a.21.21,0,0,0-.21.16L11.07,36.46Z"/><path class="cls-2" d="M10.36,40.42,0,99.51a.19.19,0,0,0,.16.22l18.15,3.2a1.77,1.77,0,0,0,2-1.42L30.46,43.72Z"/><path class="cls-2" d="M94.86,99.37l-8.35-70L70.92,31.31l1.42,11.23,7-.65L80,47l-7,.72L79.55,103l13.78-1.65a1.75,1.75,0,0,0,1.53-1.93"/><polygon class="cls-2" points="35.53 78.91 64.47 79.36 64.47 75.54 35.53 75.55 35.53 78.91"/><polygon class="cls-2" points="64.47 86.35 64.47 82.67 35.53 82.53 35.53 86.01 64.47 86.35"/><polygon class="cls-2" points="64.47 102.95 64.47 89.9 35.53 89.17 35.53 102.95 64.47 102.95"/><path class="cls-2" d="M64.47,0V72.79l-28.94,0L35.85.72Z"/></g></g></svg>